<svg xmlns="http://www.w3.org/2000/svg" xmlns:xlink="http://www.w3.org/1999/xlink" viewBox="0 0 512 512"><defs><style>.a{clip-path:url(#b);}.b{fill:#070606;}.c,.d{stroke:none;}.d{fill:#020202;}</style><clipPath id="b"><rect width="512" height="512"/></clipPath></defs><g id="a" class="a"><g class="b" transform="translate(123.547 148.326)"><path class="c" d="M 366.4530334472656 295.4454956054688 L -101.5469589233398 295.4454956054688 C -104.2491607666016 295.4454956054688 -106.8680877685547 294.9170532226562 -109.3310241699219 293.8747863769531 C -111.7116928100586 292.8680419921875 -113.8508911132812 291.42578125 -115.6895599365234 289.5878295898438 C -117.5274276733398 287.7500305175781 -118.9698257446289 285.6109619140625 -119.9765548706055 283.2303771972656 C -121.0189590454102 280.7662353515625 -121.547492980957 278.1472473144531 -121.547492980957 275.4459228515625 L -121.547492980957 -49.16471099853516 L 112.8898391723633 91.13674163818359 C 116.6386795043945 94.12921905517578 121.4738235473633 95.7755126953125 126.5229110717773 95.7755126953125 C 126.5487060546875 95.7755126953125 126.5745086669922 95.77530670166016 126.6003112792969 95.77510833740234 L 126.614372253418 95.77497863769531 L 126.6312408447266 95.77484130859375 L 126.6247100830078 95.77490997314453 L 126.6851119995117 95.77457427978516 L 126.8289108276367 95.77457427978516 C 131.8752136230469 95.77457427978516 136.7085418701172 94.12887573242188 140.4565582275391 91.13758087158203 L 386.45263671875 -56.08104705810547 L 386.45263671875 275.4459228515625 C 386.45263671875 278.1471862792969 385.9241027832031 280.7661743164062 384.8817749023438 283.2301635742188 C 383.8751220703125 285.6109008789062 382.4326477050781 287.7499084472656 380.5944519042969 289.5881652832031 C 378.7588500976562 291.4245910644531 376.6201171875 292.86669921875 374.2373046875 293.8746948242188 C 371.7733764648438 294.9169616699219 369.154296875 295.4454956054688 366.4530334472656 295.4454956054688 Z M 126.6740417480469 55.12611770629883 L -100.7502899169922 -80.97822570800781 L 354.0984802246094 -80.97822570800781 L 126.6740417480469 55.12611770629883 Z"/><path class="d" d="M 366.4530334472656 293.4454956054688 C 368.8851623535156 293.4454956054688 371.2420349121094 292.9701843261719 373.4580993652344 292.03271484375 C 375.6023864746094 291.1255798339844 377.5273742675781 289.8275756835938 379.1802368164062 288.1739807128906 C 380.8353881835938 286.5187683105469 382.1338500976562 284.593505859375 383.0398559570312 282.4509887695312 C 383.977294921875 280.2348327636719 384.45263671875 277.8779907226562 384.45263671875 275.4459228515625 L 384.45263671875 -52.55331039428711 L 141.5958251953125 92.78659820556641 C 137.5102386474609 96.00543212890625 132.2790374755859 97.77457427978516 126.8289108276367 97.77457427978516 L 126.6840286254883 97.77457427978516 L 126.6489105224609 97.77477264404297 L 126.630241394043 97.77490997314453 L 126.6172409057617 97.77503967285156 C 126.5857772827148 97.77530670166016 126.5543746948242 97.7755126953125 126.5229110717773 97.7755126953125 C 121.0699691772461 97.7755126953125 115.8365173339844 96.0054931640625 111.7500305175781 92.78543090820312 L -119.547492980957 -45.63697052001953 L -119.547492980957 275.4459228515625 C -119.547492980957 277.8781127929688 -119.0721588134766 280.2349243164062 -118.1344909667969 282.4514465332031 C -117.2286224365234 284.5935668945312 -115.9301605224609 286.5189208984375 -114.2756881713867 288.1733093261719 C -112.6199569702148 289.828369140625 -110.6944274902344 291.1267700195312 -108.551628112793 292.0328979492188 C -106.3366241455078 292.9702453613281 -103.9798889160156 293.4454956054688 -101.5469589233398 293.4454956054688 L 366.4530334472656 293.4454956054688 M 126.6740417480469 52.7952995300293 L 346.8618774414062 -78.97822570800781 L -93.51368713378906 -78.97822570800781 L 126.6740417480469 52.7952995300293 M 366.4530334472656 297.4454956054688 L -101.5469589233398 297.4454956054688 C -104.518424987793 297.4454956054688 -107.3995590209961 296.8638305664062 -110.1104888916016 295.7166442871094 C -112.728889465332 294.609375 -115.0817565917969 293.0232543945312 -117.1034927368164 291.0023803710938 C -119.1246871948242 288.9811706542969 -120.7110900878906 286.6283874511719 -121.8186264038086 284.0093688964844 C -122.9658279418945 281.2975769042969 -123.547492980957 278.4164428710938 -123.547492980957 275.4459228515625 L -123.547492980957 -52.69242477416992 L 114.0353775024414 89.49150848388672 C 117.4449768066406 92.25417327880859 121.8797073364258 93.7755126953125 126.5229110717773 93.7755126953125 C 126.5481109619141 93.7755126953125 126.5733108520508 93.77524566650391 126.5985107421875 93.77503967285156 L 126.613639831543 93.77490997314453 L 126.6740417480469 93.77457427978516 L 126.8289108276367 93.77457427978516 C 131.4693756103516 93.77457427978516 135.9023132324219 92.25377655029297 139.3109741210938 89.49237823486328 L 388.45263671875 -59.60875701904297 L 388.45263671875 275.4459228515625 C 388.45263671875 278.4163208007812 387.8709716796875 281.2974548339844 386.7237854003906 284.0093688964844 C 385.6163024902344 286.6283874511719 384.0298461914062 288.9811706542969 382.0086364746094 291.0023803710938 C 379.9903869628906 293.0215759277344 377.6379089355469 294.6076965332031 375.0165100097656 295.7166442871094 C 372.3046569824219 296.8638305664062 369.4235229492188 297.4454956054688 366.4530334472656 297.4454956054688 Z M 126.6738433837891 57.4570426940918 L 126.6740417480469 57.4569091796875 L -106.8938217163086 -82.32408905029297 C -105.1542892456055 -82.75875854492188 -103.3554229736328 -82.97822570800781 -101.5469589233398 -82.97822570800781 L 361.3350524902344 -82.97822570800781 L 126.6740417480469 57.4569091796875 L 126.6738433837891 57.4570426940918 Z"/></g></g></svg>